<?xml version="1.0" encoding="UTF-8" standalone="no"?>
<!DOCTYPE svg PUBLIC "-//W3C//DTD SVG 1.1//EN" "http://www.w3.org/Graphics/SVG/1.1/DTD/svg11.dtd">
<svg width="100%" height="100%" viewBox="0 0 4000 4000" version="1.1" xmlns="http://www.w3.org/2000/svg" xmlns:xlink="http://www.w3.org/1999/xlink" xml:space="preserve" xmlns:serif="http://www.serif.com/" style="fill-rule:evenodd;clip-rule:evenodd;stroke-linejoin:round;stroke-miterlimit:2;">
    <g id="isotipo-positivo" serif:id="isotipo positivo" transform="matrix(0.869688,0,0,0.869688,30.897321,175.175265)">
        <g id="isotipo" transform="matrix(1,0,0,1,-750,0)">
            <path id="corazon" d="M1363.928,2047.166C1244.971,1887.915 1174.408,1689.752 1174.408,1475.074C1174.408,950.127 1596.329,523.937 2116.017,523.937C2525.187,523.937 2873.752,788.134 3003.499,1156.714C3126.891,787.745 3484.381,520.671 3905.674,520.671C4429.008,520.671 4853.888,932.79 4853.888,1440.405C4853.888,1523.013 4842.636,1603.093 4821.538,1679.279C4815.943,1713.947 4800.775,1755.581 4777.198,1803.095C4743.084,1880.037 4698.451,1951.574 4645.061,2015.997C4320.626,2470.977 3612.498,3174.669 3005,3675.833C2603.128,3264.853 1734.898,2616.617 1363.928,2047.166Z" style="fill:rgb(255,118,140);"/>
            <path id="pie" d="M3000,1154.539C2882.538,1438.422 3150.542,1849.368 3529.859,2339.167C3671.045,2521.475 3688.166,2610.892 3756.25,2733.624C3896.355,2986.185 4101.628,3124.086 4560.876,3054.784C4606.918,3263.279 4397.549,3430.711 4107.139,3335.635C3782.369,3472.958 3652.491,3333.294 3320.827,3052.225C3060.366,2831.498 3020.142,2860.538 2793.084,2745.239C2675.153,2685.353 2544.78,2710.044 2335.411,2681.146C2151.265,2655.73 2132.495,2636.814 2049.419,2518.576C1954.667,2383.722 2137.938,2013.997 2184.88,1854.853C2271.782,1560.236 2047.277,1107.807 1891.897,708.147L3000,1154.539Z" style="fill:rgb(255,118,140);"/>
            <path id="silueta" d="M3003.499,1156.714C3020.367,1568.276 3516.22,2131.082 3800.19,2637.927C3840.926,2710.636 3878.132,2779.113 3924.781,2835.031C4048.104,2967.725 4291.591,3032.818 4589.285,2985.536C4727.35,3245.427 4502.478,3486.056 4111.85,3424.746C3858.771,3512.103 3647.23,3448.411 3466.422,3272.966C3250.65,3063.596 3033.376,2899.379 2784.765,2816.251C2489.077,2717.381 2294.738,2814.76 2094.433,2663.333C1864.172,2489.261 1943.572,2234.462 2072.359,1953.451C2102.682,1887.285 2144.138,1740.767 2132.341,1642.265C2103.476,1401.243 1988.566,1097.67 1834.151,755.569C1824.047,704.747 1882.171,683.223 1908.752,709.733C2069.882,1089.388 2210.911,1441.256 2215.71,1660.833C2219.42,1830.62 2200.878,1911.367 2142.917,2036.641C1989.193,2368.899 2017.539,2531.33 2162.736,2611.299C2373.294,2727.266 2560.828,2639.818 2794.526,2729.791C3100.667,2847.653 3262.435,2968.486 3530.247,3215.18C3750.635,3400.571 3937.379,3406.525 4107.302,3322.767C4367.873,3425.42 4610.155,3234.501 4547.964,3063.505C4333.209,3101.176 4153.143,3091.709 4009.875,3014.3C3950.047,2981.975 3900.286,2948.19 3860.548,2897.765C3654.508,2636.311 3691.331,2547.474 3414.544,2199.661C3091.133,1793.259 2871.438,1372.739 3003.499,1156.714Z" style="fill:rgb(0,0,73);"/>
        </g>
    </g>
</svg>
